<?xml version="1.0" standalone="no"?>
<!DOCTYPE svg PUBLIC "-//W3C//DTD SVG 20010904//EN"
 "http://www.w3.org/TR/2001/REC-SVG-20010904/DTD/svg10.dtd">
<svg version="1.0" xmlns="http://www.w3.org/2000/svg"
 width="1512.000000pt" height="397.000000pt" viewBox="0 0 1512.000000 397.000000"
 preserveAspectRatio="xMidYMid meet">

<g transform="translate(0.000000,397.000000) scale(0.100000,-0.100000)"
fill="#000000" stroke="none">
<path d="M0 1985 l0 -1985 7560 0 7560 0 0 1985 0 1985 -7560 0 -7560 0 0
-1985z m14433 1798 c-7 -2 -21 -2 -30 0 -10 3 -4 5 12 5 17 0 24 -2 18 -5z
m554 -585 c-3 -8 -6 -5 -6 6 -1 11 2 17 5 13 3 -3 4 -12 1 -19z m-12187 -951
c0 -503 -4 -784 -11 -823 -32 -176 -166 -311 -348 -350 -98 -20 -744 -20 -824
1 -125 32 -217 104 -275 213 -57 106 -62 145 -62 468 0 258 2 299 19 353 41
133 136 237 262 287 l74 29 353 3 352 3 0 -165 0 -166 -307 0 c-179 0 -323 -4
-345 -10 -25 -7 -43 -22 -57 -44 -20 -31 -21 -48 -21 -297 0 -238 2 -268 19
-299 31 -59 52 -61 431 -58 372 3 368 2 395 71 13 32 15 141 15 792 l0 755
165 0 165 0 0 -763z m4020 -212 l0 -975 -165 0 -165 0 0 975 0 975 165 0 165
0 0 -975z m3350 0 l0 -975 -170 0 -170 0 0 975 0 975 170 0 170 0 0 -975z
m1820 825 l0 -150 -165 0 -165 0 0 150 0 150 165 0 165 0 0 -150z m-7744 -441
c170 -31 308 -169 344 -344 7 -36 10 -161 8 -367 -3 -296 -5 -316 -26 -368
-46 -114 -150 -212 -272 -255 -50 -17 -90 -20 -431 -23 -324 -3 -385 -1 -439
13 -162 42 -266 134 -321 285 -23 63 -24 73 -24 385 0 312 1 322 24 385 55
150 164 247 319 284 73 18 727 22 818 5z m1964 -154 l0 -165 -460 0 c-502 0
-510 -1 -547 -56 -16 -26 -18 -54 -18 -300 0 -261 1 -274 21 -301 37 -50 53
-52 547 -52 l457 -1 0 -165 0 -165 -476 0 c-524 0 -543 2 -656 62 -107 57
-193 178 -218 307 -16 84 -13 552 4 633 39 183 164 317 332 357 22 5 258 9
527 10 l487 1 0 -165z m1870 161 c0 -2 -169 -140 -375 -306 -206 -166 -377
-306 -380 -309 -2 -4 96 -104 218 -221 122 -118 296 -285 386 -372 l163 -158
-239 0 -239 0 -342 331 c-188 182 -349 343 -357 359 -23 44 -19 111 8 151 12
19 160 145 327 281 l305 247 263 0 c144 1 262 -1 262 -3z m1360 -161 l0 -165
-418 0 c-459 0 -462 0 -462 -59 0 -50 4 -51 290 -51 329 0 413 -9 500 -52 229
-113 318 -406 196 -647 -55 -107 -180 -197 -310 -220 -37 -7 -236 -11 -528
-11 l-468 0 0 165 0 164 478 3 c524 3 505 1 536 65 20 43 20 86 0 129 -29 62
-41 64 -356 64 -156 0 -311 4 -346 9 -79 12 -138 40 -202 97 -108 98 -148 259
-101 413 36 119 148 219 278 250 21 5 235 9 476 10 l437 1 0 -165z m1551 155
c186 -35 330 -184 359 -370 5 -37 10 -265 10 -527 l0 -463 -170 0 -170 0 0
478 c0 455 -1 478 -20 509 -13 21 -31 35 -57 42 -23 7 -159 11 -340 11 l-303
0 0 165 0 165 319 0 c175 0 342 -5 372 -10z m999 -675 l0 -685 -165 0 -165 0
0 685 0 685 165 0 165 0 0 -685z m1509 666 c33 -10 80 -30 103 -44 100 -58
184 -184 207 -312 14 -78 14 -568 0 -637 -36 -170 -160 -297 -336 -343 -45
-12 -127 -15 -385 -15 l-328 0 0 165 0 165 303 0 c176 0 317 4 339 10 20 6 46
22 58 37 19 25 20 39 20 310 l0 285 -28 28 c-19 19 -44 31 -73 35 -61 9 -670
1 -691 -9 -10 -4 -27 -23 -38 -41 -20 -32 -20 -48 -20 -724 l0 -691 -165 0
-165 0 0 714 c0 673 1 718 19 775 35 113 115 207 223 262 83 43 135 47 525 48
337 1 377 -1 432 -18z"/>
<path d="M3491 2087 c-19 -7 -44 -25 -55 -40 -20 -27 -21 -40 -21 -302 0 -262
1 -275 21 -302 11 -15 36 -33 55 -40 44 -16 647 -18 702 -2 26 7 44 21 57 42
18 30 20 52 20 302 0 250 -2 272 -20 302 -13 21 -31 35 -57 42 -55 16 -658 14
-702 -2z"/>
</g>
</svg>
